<svg xmlns="http://www.w3.org/2000/svg" viewBox="0 0 320 200" fill="none" aria-hidden="true">
  <rect width="320" height="200" fill="#fafafa"/>
  <text x="160" y="28" text-anchor="middle" fill="#78716c" font-family="system-ui,sans-serif" font-size="11" font-weight="600">Batch traceability</text>
  <rect x="44" y="48" width="108" height="108" rx="8" fill="#fff" stroke="#b45309" stroke-width="2"/>
  <g fill="#1c1917">
    <rect x="58" y="62" width="24" height="24"/>
    <rect x="92" y="62" width="16" height="16"/>
    <rect x="118" y="62" width="24" height="24"/>
    <rect x="58" y="94" width="16" height="16"/>
    <rect x="86" y="94" width="12" height="12" fill="#d97706"/>
    <rect x="106" y="94" width="36" height="12"/>
    <rect x="58" y="118" width="24" height="24"/>
    <rect x="92" y="118" width="16" height="16"/>
    <rect x="118" y="118" width="24" height="24"/>
  </g>
  <path d="M160 102h32" stroke="#d97706" stroke-width="2.5" marker-end="url(#m-qr)"/>
  <rect x="200" y="56" width="76" height="100" rx="6" fill="#fff" stroke="#78716c" stroke-width="1.5"/>
  <path stroke="#d6d3d1" stroke-width="1.5" d="M212 76h52M212 92h44M212 108h48M212 124h40"/>
  <circle cx="238" cy="140" r="10" stroke="#15803d" stroke-width="1.5" fill="#f0fdf4"/>
  <path stroke="#15803d" stroke-width="2" stroke-linecap="round" d="M233 140l4 4 10-10"/>
  <rect x="48" y="168" width="224" height="24" rx="4" fill="#fff" stroke="#d6d3d1"/>
  <text x="160" y="184" text-anchor="middle" fill="#78716c" font-family="system-ui,sans-serif" font-size="9.5">Public /trace URL per batch code</text>
  <defs>
    <marker id="m-qr" orient="auto" markerWidth="7" markerHeight="7" refX="6" refY="3.5">
      <path d="M0 0L7 3.5L0 7z" fill="#d97706"/>
    </marker>
  </defs>
</svg>
