<svg xmlns="http://www.w3.org/2000/svg" viewBox="0 0 320 200" fill="none" aria-hidden="true">
  <rect width="320" height="200" fill="#fafafa"/>
  <text x="160" y="28" text-anchor="middle" fill="#78716c" font-family="system-ui,sans-serif" font-size="11" font-weight="600">Compliance reporting</text>
  <rect x="36" y="44" width="248" height="128" rx="10" fill="#fff" stroke="#57534e" stroke-width="2"/>
  <rect x="48" y="56" width="224" height="96" rx="6" fill="#fafafa"/>
  <path d="M64 84l44 10 40-18 48 14 44-24" stroke="#b45309" stroke-width="2.2" fill="none" stroke-linecap="round" stroke-linejoin="round"/>
  <circle cx="64" cy="84" r="3.5" fill="#d97706"/>
  <circle cx="240" cy="66" r="3.5" fill="#15803d"/>
  <g opacity=".9">
    <rect x="64" y="118" width="32" height="26" rx="3" fill="#d97706"/>
    <rect x="104" y="106" width="32" height="38" rx="3" fill="#b45309"/>
    <rect x="144" y="98" width="32" height="46" rx="3" fill="#d97706"/>
    <rect x="184" y="112" width="32" height="32" rx="3" fill="#a8a29e"/>
    <rect x="224" y="92" width="32" height="52" rx="3" fill="#15803d"/>
  </g>
  <path stroke="#d6d3d1" stroke-width="3" stroke-linecap="round" d="M124 176h72"/>
  <path stroke="#a8a29e" stroke-width="4" stroke-linecap="round" d="M148 176v10h24v-10"/>
  <rect x="48" y="184" width="224" height="12" rx="2" fill="#fff" stroke="#d6d3d1"/>
  <text x="160" y="193" text-anchor="middle" fill="#78716c" font-family="system-ui,sans-serif" font-size="9">Dashboards · CSV · PDF exports</text>
</svg>
